# xmcd
#
# Track frame offsets:
#	150
#	13337
#	25875
#	42800
#	54437
#	67337
#	79212
#	90162
#	106525
#	121462
#	136325
#	147387
#
# Disc length: 2151 seconds
#
# Revision: 0
# Processed by: cddbd v1.4PL0 Copyright (c) Steve Scherf et al.
# Submitted via: audiograbber 1.82.00
#
DISCID=9e08650c
DTITLE=Lynn Anderson - Stand By Your Man
DYEAR=1900
DGENRE=
TTITLE0=Rose Garden
TTITLE1=Stand By Your Man
TTITLE2=Blue Bayou
TTITLE3=Listen To A Country Song
TTITLE4=Top Of The World
TTITLE5=Rodeo Cowboy
TTITLE6=Heaven's Just A Sin Away
TTITLE7=Devil Went Down To Georgia
TTITLE8=Gone At Last
TTITLE9=Faithless Love
TTITLE10=Someday Soon
TTITLE11=Two Doors Down
EXTD=
EXTT0=
EXTT1=
EXTT2=
EXTT3=
EXTT4=
EXTT5=
EXTT6=
EXTT7=
EXTT8=
EXTT9=
EXTT10=
EXTT11=
PLAYORDER=
